<svg width="111" height="38" viewBox="0 0 111 38" fill="none" xmlns="http://www.w3.org/2000/svg">
<path d="M95.4825 8.99295C95.6551 9.03496 95.8002 9.07134 95.9156 9.10079C95.9196 9.13059 95.9238 9.16219 95.9283 9.19554C95.9655 9.47181 96.022 9.86831 96.0991 10.3516C96.2533 11.3174 96.4907 12.6331 96.8233 14.0298C97.1553 15.4242 97.5852 16.9116 98.1273 18.2158C98.6634 19.5057 99.3344 20.6795 100.18 21.3841C101.808 22.741 103.84 23.0603 105.415 23.0579C106.208 23.0566 106.901 22.974 107.397 22.8917C107.517 22.8718 107.626 22.8518 107.722 22.833L109.475 29.2153C109.913 30.8067 108.715 32.3776 107.065 32.3776H99.7008C98.562 32.3776 97.5053 31.5453 96.6238 30.5187C95.741 29.4905 94.2866 28.5096 92.005 28.5096C90.6244 28.5096 89.637 28.8702 88.9471 29.4306C88.5772 29.731 88.2151 30.0795 87.8656 30.4175L87.8243 30.4575C87.4838 30.7869 87.1535 31.1064 86.8139 31.3928C86.0999 31.9951 85.4274 32.3776 84.7072 32.3776H83.3305C82.1866 32.3776 81.1989 31.6043 80.9456 30.5008C80.4193 28.2075 79.611 24.4333 78.9942 20.424C78.3943 16.525 78.1561 12.2549 78.0617 9.47953C78.0152 8.1135 79.1128 7.02433 80.4749 7.08585C81.9893 7.15426 84.0261 7.27716 86.4547 7.49795C89.1817 7.74585 91.6302 8.16824 93.3972 8.52885C94.2803 8.70907 94.9922 8.87366 95.4825 8.99295ZM97.0866 10.1939C97.0342 9.86571 96.9916 9.57862 96.9583 9.34367C96.9992 9.35323 97.0417 9.36323 97.0855 9.37368C97.5896 9.49372 98.2817 9.67208 99.0343 9.90531C100.567 10.3803 102.253 11.0543 103.166 11.8725C103.586 12.2483 104.087 13.0602 104.611 14.1524C105.124 15.2225 105.627 16.4917 106.071 17.7148C106.515 18.9362 106.897 20.103 107.168 20.9651C107.281 21.3259 107.375 21.6329 107.446 21.8678C107.381 21.88 107.31 21.8925 107.234 21.9052C106.778 21.9808 106.14 22.0567 105.413 22.0579C103.949 22.0601 102.192 21.759 100.82 20.6159C100.166 20.0705 99.5703 19.0821 99.0507 17.832C98.537 16.5961 98.1217 15.1655 97.7961 13.7981C97.471 12.433 97.2382 11.1432 97.0866 10.1939ZM28.4395 3.42699C28.2456 1.901 29.4627 0.563572 31.0001 0.613167L71.5467 1.92112C72.7299 1.95929 73.7241 2.82213 73.9285 3.98819L78.5964 30.6186C78.7573 31.5366 78.0509 32.3776 77.1189 32.3776H70.2381C69.5701 32.3776 68.9144 31.9106 68.4718 31.234C67.6791 30.0222 66.1059 28.5096 63.269 28.5096C61.1117 28.5096 59.9471 29.3932 59.3675 30.4426C59.0902 30.9447 58.7466 31.4422 58.3493 31.8085C57.9532 32.1737 57.539 32.3776 57.1049 32.3776H54.7886H46.3926C46.1958 32.3776 45.9802 32.2567 45.8398 32.0358C45.1851 31.0058 43.5027 28.9931 40.3776 28.9931C38.9506 28.9931 37.9109 29.4161 37.1667 30.0037C36.4299 30.5855 36.0128 31.3046 35.7818 31.8581C35.6448 32.1864 35.3691 32.3776 35.1277 32.3776H34.3204C33.0615 32.3776 31.999 31.4415 31.8403 30.1927L28.4395 3.42699ZM36.7376 33.8903C36.7376 31.7714 38.439 30.2806 40.3776 30.2806C42.3161 30.2806 44.0175 31.7714 44.0175 33.8903C44.0175 36.0097 42.3224 37.5 40.3776 37.5C38.4327 37.5 36.7376 36.0097 36.7376 33.8903ZM59.8726 33.3611C59.8726 31.2422 61.574 29.7514 63.5125 29.7514C65.4511 29.7514 67.1525 31.2422 67.1525 33.3611C67.1525 35.4805 65.4573 36.9708 63.5125 36.9708C61.5677 36.9708 59.8726 35.4805 59.8726 33.3611ZM88.8521 33.368C88.8521 31.2491 90.5535 29.7583 92.4921 29.7583C94.4306 29.7583 96.132 31.2491 96.132 33.368C96.132 35.4875 94.4369 36.9777 92.4921 36.9777C90.5473 36.9777 88.8521 35.4875 88.8521 33.368ZM15.6908 8.68638L15.3916 8.65937C18.4167 8.61995 20.3742 8.56987 21.6401 8.53748C21.8456 8.53222 22.0329 8.52743 22.2035 8.52323C21.9508 8.63073 21.6786 8.68638 21.4031 8.68638H15.6908Z" fill="#7D0092" stroke="#FCFCFC"/>
</svg>
